<?xml version="1.0" standalone="no"?>
<!DOCTYPE svg PUBLIC "-//W3C//DTD SVG 20010904//EN"
 "http://www.w3.org/TR/2001/REC-SVG-20010904/DTD/svg10.dtd">
<svg version="1.0" xmlns="http://www.w3.org/2000/svg"
 width="159.000000pt" height="159.000000pt" viewBox="0 0 159.000000 159.000000"
 preserveAspectRatio="xMidYMid meet">
<metadata>
Created by potrace 1.14, written by Peter Selinger 2001-2017
</metadata>
<g transform="translate(0.000000,159.000000) scale(0.100000,-0.100000)"
fill="#000000" stroke="none">
<path d="M617 1389 c-44 -10 -126 -50 -185 -91 -93 -64 -179 -177 -220 -288
-34 -94 -36 -137 -7 -166 21 -21 34 -24 102 -25 148 -2 447 2 453 6 4 2 7 121
8 264 1 247 0 261 -19 285 -22 28 -59 32 -132 15z"/>
<path d="M850 1380 c-22 -22 -21 -4 -22 -325 -1 -124 1 -228 4 -230 3 -3 119
-6 259 -6 317 -1 322 0 313 102 -17 185 -196 389 -401 458 -79 27 -127 27
-153 1z"/>
<path d="M222 765 c-34 -15 -41 -28 -36 -76 12 -139 130 -316 272 -407 55 -35
83 -48 172 -79 31 -11 94 -11 105 1 30 30 33 57 33 309 0 141 -3 258 -7 258
-3 1 -119 3 -258 4 -181 1 -260 -2 -281 -10z"/>
<path d="M829 771 c0 -3 -1 -125 -1 -269 0 -259 1 -264 23 -288 27 -29 74 -27
165 7 197 73 365 270 388 455 6 42 3 55 -13 75 l-19 24 -271 1 c-149 0 -271
-2 -272 -5z"/>
</g>
</svg>
